<svg width="25" height="25" viewBox="0 0 25 25" fill="none" xmlns="http://www.w3.org/2000/svg">
<path d="M21.3637 10.1271L21.3636 10.127L13.5505 3.02391C13.2635 2.76111 12.8885 2.61535 12.4994 2.61537C12.1102 2.61539 11.7352 2.76118 11.4483 3.02401L3.63636 10.127C3.47545 10.2735 3.34687 10.4521 3.25882 10.6511C3.17078 10.8502 3.1252 11.0654 3.125 11.2831V20.3125C3.12547 20.7268 3.29025 21.1239 3.58317 21.4168C3.87609 21.7098 4.27324 21.8745 4.6875 21.875H20.3125C20.7268 21.8745 21.1239 21.7098 21.4168 21.4168C21.7098 21.1239 21.8745 20.7268 21.875 20.3125V11.2831C21.8748 11.0655 21.8292 10.8503 21.7412 10.6512C21.6532 10.4522 21.5246 10.2737 21.3637 10.1271Z" fill="white"/>
</svg>
