<svg width="25" height="25" viewBox="0 0 25 25" fill="none" xmlns="http://www.w3.org/2000/svg">
<g clip-path="url(#clip0_1_148)">
<path d="M10.1562 1.5625H14.8438C15.051 1.5625 15.2497 1.48019 15.3962 1.33368C15.5427 1.18716 15.625 0.98845 15.625 0.78125C15.625 0.57405 15.5427 0.375336 15.3962 0.228823C15.2497 0.08231 15.051 0 14.8438 0L10.1562 0C9.94905 0 9.75034 0.08231 9.60382 0.228823C9.45731 0.375336 9.375 0.57405 9.375 0.78125C9.375 0.98845 9.45731 1.18716 9.60382 1.33368C9.75034 1.48019 9.94905 1.5625 10.1562 1.5625Z" fill="#EDEDED"/>
<path d="M12.5 3.125C10.6458 3.125 8.83325 3.67483 7.29153 4.70497C5.74982 5.73511 4.54821 7.19929 3.83863 8.91234C3.12906 10.6254 2.94341 12.5104 3.30514 14.329C3.66688 16.1475 4.55976 17.818 5.87088 19.1291C7.182 20.4402 8.85246 21.3331 10.671 21.6949C12.4896 22.0566 14.3746 21.8709 16.0877 21.1614C17.8007 20.4518 19.2649 19.2502 20.295 17.7085C21.3252 16.1668 21.875 14.3542 21.875 12.5C21.8722 10.0145 20.8836 7.63152 19.126 5.87398C17.3685 4.11643 14.9855 3.12781 12.5 3.125ZM16.9194 9.18541L13.0525 13.0524C12.9799 13.125 12.8938 13.1825 12.799 13.2218C12.7042 13.2611 12.6026 13.2813 12.5 13.2813C12.3974 13.2813 12.2958 13.2611 12.2011 13.2218C12.1063 13.1826 12.0201 13.125 11.9476 13.0525C11.875 12.9799 11.8175 12.8938 11.7782 12.799C11.739 12.7042 11.7187 12.6026 11.7187 12.5C11.7187 12.3974 11.7389 12.2958 11.7782 12.2011C11.8175 12.1063 11.875 12.0201 11.9475 11.9476L15.8145 8.08058C15.8871 8.00803 15.9732 7.95048 16.068 7.91122C16.1628 7.87195 16.2644 7.85174 16.367 7.85174C16.4696 7.85174 16.5712 7.87194 16.6659 7.9112C16.7607 7.95046 16.8469 8.00801 16.9194 8.08055C16.992 8.1531 17.0495 8.23922 17.0888 8.33401C17.128 8.42879 17.1482 8.53038 17.1482 8.63298C17.1482 8.73557 17.128 8.83716 17.0888 8.93195C17.0495 9.02674 16.992 9.11286 16.9194 9.18541H16.9194Z" fill="#EDEDED"/>
</g>
<defs>
<clipPath id="clip0_1_148">
<rect width="25" height="25" fill="white"/>
</clipPath>
</defs>
</svg>
