<svg width="37" height="35" viewBox="0 0 37 35" fill="none" xmlns="http://www.w3.org/2000/svg">
<path fill-rule="evenodd" clip-rule="evenodd" d="M25.2414 0.000290999C26.3914 0.000290999 27.5395 0.162492 28.6312 0.52881C35.358 2.71579 37.7819 10.0968 35.7571 16.5484C34.6089 19.8453 32.7318 22.8542 30.2733 25.3127C26.754 28.7208 22.8922 31.7461 18.7351 34.3522L18.2795 34.6274L17.8057 34.334C13.634 31.7461 9.7503 28.7208 6.19829 25.2945C3.75616 22.836 1.87719 19.8453 0.710798 16.5484C-1.34861 10.0968 1.07529 2.71579 7.87497 0.490538C8.40349 0.30829 8.94841 0.180717 9.49516 0.10964H9.71385C10.226 0.0349181 10.7344 0.000290999 11.2447 0.000290999H11.4452C12.5934 0.0349181 13.7051 0.235391 14.7822 0.60171H14.8897C14.9626 0.636337 15.0173 0.674609 15.0537 0.709236C15.4565 0.838632 15.8374 0.984431 16.2019 1.1849L16.8944 1.49473C17.0618 1.58398 17.2496 1.72035 17.4119 1.83821C17.5148 1.91288 17.6074 1.98013 17.6781 2.02324C17.7078 2.04079 17.7381 2.05844 17.7685 2.07623C17.9248 2.16745 18.0876 2.26247 18.2248 2.36769C20.2496 0.820407 22.7081 -0.0179338 25.2414 0.000290999ZM30.089 13.1227C30.8362 13.1026 31.474 12.503 31.5287 11.7357V11.5189C31.5834 8.96557 30.0361 6.65284 27.6833 5.75983C26.9361 5.50286 26.116 5.90563 25.8426 6.67107C25.5874 7.43651 25.9884 8.27485 26.7538 8.5464C27.922 8.9838 28.7039 10.1338 28.7039 11.4077V11.4642C28.6693 11.8815 28.795 12.2843 29.0501 12.5941C29.3053 12.904 29.688 13.0844 30.089 13.1227Z" fill="white"/>
</svg>
