<svg width="25" height="25" viewBox="0 0 25 25" fill="none" xmlns="http://www.w3.org/2000/svg">
<path d="M19.5312 3.12555H17.9688V2.3443C17.9688 2.1371 17.8864 1.93839 17.7399 1.79187C17.5934 1.64536 17.3947 1.56305 17.1875 1.56305C16.9803 1.56305 16.7816 1.64536 16.6351 1.79187C16.4886 1.93839 16.4062 2.1371 16.4062 2.3443V3.12555H13.2812V2.3443C13.2812 2.1371 13.1989 1.93839 13.0524 1.79187C12.9059 1.64536 12.7072 1.56305 12.5 1.56305C12.2928 1.56305 12.0941 1.64536 11.9476 1.79187C11.8011 1.93839 11.7188 2.1371 11.7188 2.3443V3.12555H8.59375V2.3443C8.59375 2.1371 8.51144 1.93839 8.36493 1.79187C8.21841 1.64536 8.0197 1.56305 7.8125 1.56305C7.6053 1.56305 7.40659 1.64536 7.26007 1.79187C7.11356 1.93839 7.03125 2.1371 7.03125 2.3443V3.12555H5.46875C5.05449 3.12602 4.65734 3.2908 4.36442 3.58372C4.0715 3.87664 3.90672 4.27379 3.90625 4.68805V19.5318C3.9072 20.3603 4.23674 21.1546 4.82259 21.7405C5.40843 22.3263 6.20274 22.6559 7.03125 22.6568H17.9688C18.7973 22.6559 19.5916 22.3263 20.1774 21.7405C20.7633 21.1546 21.0928 20.3603 21.0938 19.5318V4.68805C21.0933 4.27379 20.9285 3.87664 20.6356 3.58372C20.3427 3.2908 19.9455 3.12602 19.5312 3.12555ZM15.625 16.4068H9.375C9.1678 16.4068 8.96909 16.3245 8.82257 16.178C8.67606 16.0315 8.59375 15.8327 8.59375 15.6255C8.59375 15.4183 8.67606 15.2196 8.82257 15.0731C8.96909 14.9266 9.1678 14.8443 9.375 14.8443H15.625C15.8322 14.8443 16.0309 14.9266 16.1774 15.0731C16.3239 15.2196 16.4062 15.4183 16.4062 15.6255C16.4062 15.8327 16.3239 16.0315 16.1774 16.178C16.0309 16.3245 15.8322 16.4068 15.625 16.4068ZM15.625 13.2818H9.375C9.1678 13.2818 8.96909 13.1995 8.82257 13.053C8.67606 12.9065 8.59375 12.7077 8.59375 12.5005C8.59375 12.2933 8.67606 12.0946 8.82257 11.9481C8.96909 11.8016 9.1678 11.7193 9.375 11.7193H15.625C15.8322 11.7193 16.0309 11.8016 16.1774 11.9481C16.3239 12.0946 16.4062 12.2933 16.4062 12.5005C16.4062 12.7077 16.3239 12.9065 16.1774 13.053C16.0309 13.1995 15.8322 13.2818 15.625 13.2818Z" fill="#EDEDED"/>
</svg>
