<svg width="25" height="25" viewBox="0 0 25 25" fill="none" xmlns="http://www.w3.org/2000/svg">
<path d="M9.4325 17.2831C9.23592 17.2176 9.02136 17.2329 8.83603 17.3255C8.65069 17.4182 8.50975 17.5807 8.44421 17.7773C7.80429 19.6971 5.72014 20.2916 4.52461 20.4755C4.70847 19.2793 5.30309 17.1956 7.22284 16.5557C7.32023 16.5233 7.41028 16.4721 7.48785 16.4049C7.56542 16.3376 7.62898 16.2558 7.67491 16.164C7.72084 16.0722 7.74823 15.9723 7.75551 15.8699C7.7628 15.7675 7.74984 15.6647 7.71738 15.5673C7.68492 15.47 7.63359 15.3799 7.56632 15.3024C7.49906 15.2249 7.41717 15.1614 7.32535 15.1155C7.23353 15.0696 7.13357 15.0423 7.03119 15.0351C6.9288 15.0279 6.82599 15.0409 6.72864 15.0734C5.13095 15.606 3.95726 16.8752 3.33432 18.744C3.05718 19.5822 2.90409 20.4564 2.8799 21.3389C2.87991 21.5461 2.96222 21.7448 3.10873 21.8913C3.25524 22.0378 3.45395 22.1201 3.66115 22.1201C4.54363 22.0959 5.41782 21.9428 6.256 21.6657C8.12473 21.0428 9.39397 19.8691 9.9266 18.2714C9.99211 18.0748 9.97686 17.8602 9.8842 17.6749C9.79154 17.4896 9.62906 17.3487 9.4325 17.2831Z" fill="#EDEDED"/>
<path d="M22.2278 4.084C22.1797 3.75315 22.026 3.44668 21.7896 3.21029C21.5532 2.9739 21.2467 2.82024 20.9159 2.77222C19.8137 2.60776 16.949 2.5268 14.1572 5.31844L13.2812 6.19448H7.29933C7.09405 6.19394 6.8907 6.23411 6.70104 6.31266C6.51139 6.3912 6.33918 6.50658 6.1944 6.6521L3.03602 9.81053C2.83606 10.0105 2.69413 10.261 2.62535 10.5353C2.55658 10.8097 2.56354 11.0975 2.64551 11.3682C2.72747 11.6388 2.88135 11.8822 3.09076 12.0723C3.30016 12.2623 3.55722 12.392 3.83453 12.4475L7.69537 13.2197L11.7803 17.3046L12.5525 21.1655C12.6078 21.4428 12.7375 21.7 12.9276 21.9094C13.1177 22.1189 13.3611 22.2728 13.6318 22.3548C13.9025 22.4368 14.1904 22.4437 14.4647 22.3748C14.7391 22.306 14.9896 22.164 15.1896 21.9639L18.3479 18.8054C18.4935 18.6607 18.6088 18.4885 18.6874 18.2989C18.7659 18.1092 18.8061 17.9059 18.8055 17.7007V11.7187L19.6815 10.8427C22.4733 8.05091 22.3923 5.18616 22.2278 4.084ZM7.29933 7.75698H11.7187L7.82378 11.6519L4.14095 10.9154L7.29933 7.75698ZM17.243 17.7007L14.0846 20.859L13.3481 17.1762L17.243 13.2813L17.243 17.7007Z" fill="#EDEDED"/>
</svg>
